<?xml version="1.0" encoding="UTF-8" standalone="no"?>
<!DOCTYPE svg PUBLIC "-//W3C//DTD SVG 1.1//EN"
 "http://www.w3.org/Graphics/SVG/1.1/DTD/svg11.dtd">
<!-- Generated by graphviz version 14.0.2 (0)
 -->
<!-- Pages: 1 -->
<svg width="626pt" height="515pt"
 viewBox="0.00 0.00 626.00 515.00" xmlns="http://www.w3.org/2000/svg" xmlns:xlink="http://www.w3.org/1999/xlink">
<g id="graph0" class="graph" transform="scale(1 1) rotate(0) translate(4 511.09)">
<polygon fill="white" stroke="none" points="-4,4 -4,-511.09 621.55,-511.09 621.55,4 -4,4"/>
<!-- EN_ATTENTE -->
<g id="node1" class="node">
<title>EN_ATTENTE</title>
<ellipse fill="none" stroke="black" cx="293.86" cy="-434.85" rx="68.24" ry="68.24"/>
<ellipse fill="none" stroke="black" cx="293.86" cy="-434.85" rx="72.24" ry="72.24"/>
<text xml:space="preserve" text-anchor="middle" x="293.86" y="-429.8" font-family="Times,serif" font-size="14.00">EN_ATTENTE</text>
</g>
<!-- AVANCE -->
<g id="node2" class="node">
<title>AVANCE</title>
<ellipse fill="none" stroke="black" cx="92.86" cy="-218.84" rx="47.26" ry="47.26"/>
<text xml:space="preserve" text-anchor="middle" x="92.86" y="-213.79" font-family="Times,serif" font-size="14.00">AVANCE</text>
</g>
<!-- EN_ATTENTE&#45;&gt;AVANCE -->
<g id="edge5" class="edge">
<title>EN_ATTENTE&#45;&gt;AVANCE</title>
<path fill="none" stroke="black" d="M222.5,-421.48C146.44,-406.67 33.48,-379.44 7.86,-344.61 -14.4,-314.34 14.92,-278.85 45.04,-253.47"/>
<polygon fill="black" stroke="black" points="47.19,-256.24 52.76,-247.22 42.78,-250.8 47.19,-256.24"/>
<text xml:space="preserve" text-anchor="middle" x="39.36" y="-331.31" font-family="Times,serif" font-size="14.00">fleche_haut</text>
</g>
<!-- TOURNE_GAUCHE -->
<g id="node3" class="node">
<title>TOURNE_GAUCHE</title>
<ellipse fill="none" stroke="black" cx="255.86" cy="-218.84" rx="91.27" ry="91.27"/>
<text xml:space="preserve" text-anchor="middle" x="255.86" y="-213.79" font-family="Times,serif" font-size="14.00">TOURNE_GAUCHE</text>
</g>
<!-- EN_ATTENTE&#45;&gt;TOURNE_GAUCHE -->
<g id="edge6" class="edge">
<title>EN_ATTENTE&#45;&gt;TOURNE_GAUCHE</title>
<path fill="none" stroke="black" d="M233.57,-394.51C217.66,-380.8 202.52,-363.94 193.86,-344.61 187.38,-330.13 188.29,-314.88 193.22,-300.21"/>
<polygon fill="black" stroke="black" points="196.42,-301.63 196.91,-291.05 189.93,-299.02 196.42,-301.63"/>
<text xml:space="preserve" text-anchor="middle" x="232.86" y="-331.31" font-family="Times,serif" font-size="14.00">fleche_gauche</text>
</g>
<!-- TOURNE_DROITE -->
<g id="node4" class="node">
<title>TOURNE_DROITE</title>
<ellipse fill="none" stroke="black" cx="451.86" cy="-218.84" rx="86.67" ry="86.67"/>
<text xml:space="preserve" text-anchor="middle" x="451.86" y="-213.79" font-family="Times,serif" font-size="14.00">TOURNE_DROITE</text>
</g>
<!-- EN_ATTENTE&#45;&gt;TOURNE_DROITE -->
<g id="edge7" class="edge">
<title>EN_ATTENTE&#45;&gt;TOURNE_DROITE</title>
<path fill="none" stroke="black" d="M336.41,-376.22C354.15,-352.19 375.04,-323.9 394.13,-298.04"/>
<polygon fill="black" stroke="black" points="396.78,-300.34 399.9,-290.22 391.15,-296.19 396.78,-300.34"/>
<text xml:space="preserve" text-anchor="middle" x="403.75" y="-331.31" font-family="Times,serif" font-size="14.00">fleche_droite</text>
</g>
<!-- MORT -->
<g id="node5" class="node">
<title>MORT</title>
<ellipse fill="none" stroke="black" cx="377.86" cy="-37.53" rx="37.53" ry="37.53"/>
<text xml:space="preserve" text-anchor="middle" x="377.86" y="-32.48" font-family="Times,serif" font-size="14.00">MORT</text>
</g>
<!-- EN_ATTENTE&#45;&gt;MORT -->
<g id="edge1" class="edge">
<title>EN_ATTENTE&#45;&gt;MORT</title>
<path fill="none" stroke="black" d="M366.13,-427.19C435.07,-416.2 530.88,-387.11 547.86,-310.11 565.34,-230.88 589.87,-196.98 547.86,-127.57 521.53,-84.05 466.16,-60.78 425.74,-49.07"/>
<polygon fill="black" stroke="black" points="426.8,-45.74 416.23,-46.47 424.95,-52.49 426.8,-45.74"/>
<text xml:space="preserve" text-anchor="middle" x="594.3" y="-213.79" font-family="Times,serif" font-size="14.00">collision</text>
</g>
<!-- AVANCE&#45;&gt;EN_ATTENTE -->
<g id="edge8" class="edge">
<title>AVANCE&#45;&gt;EN_ATTENTE</title>
<path fill="none" stroke="black" d="M88.83,-266.12C88.95,-291.48 93.17,-322.21 109.36,-344.61 134.13,-378.88 175.66,-400.56 213.05,-413.96"/>
<polygon fill="black" stroke="black" points="211.44,-417.11 222.04,-417.03 213.71,-410.48 211.44,-417.11"/>
<text xml:space="preserve" text-anchor="middle" x="147.61" y="-331.31" font-family="Times,serif" font-size="14.00">aucun_bouton</text>
</g>
<!-- AVANCE&#45;&gt;MORT -->
<g id="edge2" class="edge">
<title>AVANCE&#45;&gt;MORT</title>
<path fill="none" stroke="black" d="M114.62,-176.46C125.2,-159.49 139.25,-140.76 155.86,-127.57 208.08,-86.07 282.17,-61.6 330.12,-49.12"/>
<polygon fill="black" stroke="black" points="330.82,-52.55 339.66,-46.72 329.11,-45.77 330.82,-52.55"/>
<text xml:space="preserve" text-anchor="middle" x="228.32" y="-96.27" font-family="Times,serif" font-size="14.00">collision</text>
</g>
<!-- TOURNE_GAUCHE&#45;&gt;EN_ATTENTE -->
<g id="edge9" class="edge">
<title>TOURNE_GAUCHE&#45;&gt;EN_ATTENTE</title>
<path fill="none" stroke="black" d="M271.69,-308.98C274.24,-323.33 276.86,-338.12 279.38,-352.28"/>
<polygon fill="black" stroke="black" points="275.91,-352.75 281.1,-361.99 282.8,-351.53 275.91,-352.75"/>
<text xml:space="preserve" text-anchor="middle" x="315.39" y="-331.31" font-family="Times,serif" font-size="14.00">aucun_bouton</text>
</g>
<!-- TOURNE_GAUCHE&#45;&gt;MORT -->
<g id="edge3" class="edge">
<title>TOURNE_GAUCHE&#45;&gt;MORT</title>
<path fill="none" stroke="black" d="M306.89,-142.84C321.91,-120.77 337.75,-97.49 350.65,-78.53"/>
<polygon fill="black" stroke="black" points="353.52,-80.53 356.25,-70.3 347.73,-76.59 353.52,-80.53"/>
<text xml:space="preserve" text-anchor="middle" x="361.65" y="-96.27" font-family="Times,serif" font-size="14.00">collision</text>
</g>
<!-- TOURNE_DROITE&#45;&gt;EN_ATTENTE -->
<g id="edge10" class="edge">
<title>TOURNE_DROITE&#45;&gt;EN_ATTENTE</title>
<path fill="none" stroke="black" d="M457.25,-305.77C455.11,-319.47 451,-332.95 443.86,-344.61 427.38,-371.54 399.47,-391.34 372.16,-405.34"/>
<polygon fill="black" stroke="black" points="370.95,-402.04 363.5,-409.58 374.02,-408.32 370.95,-402.04"/>
<text xml:space="preserve" text-anchor="middle" x="489.38" y="-331.31" font-family="Times,serif" font-size="14.00">aucun_bouton</text>
</g>
<!-- TOURNE_DROITE&#45;&gt;MORT -->
<g id="edge4" class="edge">
<title>TOURNE_DROITE&#45;&gt;MORT</title>
<path fill="none" stroke="black" d="M418.97,-138.15C411.18,-119.27 403.15,-99.8 396.27,-83.14"/>
<polygon fill="black" stroke="black" points="399.56,-81.93 392.51,-74.03 393.09,-84.6 399.56,-81.93"/>
<text xml:space="preserve" text-anchor="middle" x="429.31" y="-96.27" font-family="Times,serif" font-size="14.00">collision</text>
</g>
</g>
</svg>
